<svg id="Layer_1" data-name="Layer 1" xmlns="http://www.w3.org/2000/svg" width="590.48" height="91.16" viewBox="0 0 590.48 91.16">
  <defs>
    <style>
      .cls-1 {
        fill: #fff;
      }
    </style>
  </defs>
  <g>
    <path class="cls-1" d="M25.83,48.45V59.23A3.55,3.55,0,0,0,27.08,62,4.35,4.35,0,0,0,30,63.11H35.9a.8.8,0,0,1,.9.9v4.52a.8.8,0,0,1-.9.9h-5a7.68,7.68,0,0,1-2.85-.54,5.05,5.05,0,0,1-2.25-1.84v2.32a13.39,13.39,0,0,1-.75,4.46A14.75,14.75,0,0,1,23,77.76a14.52,14.52,0,0,1-3.13,3.13,15,15,0,0,1-4,2.1L7.94,85.7,6.26,80.54l8.33-2.78a8.44,8.44,0,0,0,4.33-3.16,8.61,8.61,0,0,0,1.61-5.1v-21Z" transform="translate(-6.26 -2)"/>
    <path class="cls-1" d="M44.81,63.11A4.2,4.2,0,0,0,48.94,59V46.58h5.29V59a10.35,10.35,0,0,1-.8,4,10.58,10.58,0,0,1-2.23,3.33,11,11,0,0,1-3.33,2.26,10,10,0,0,1-4.1.83H35.9a.81.81,0,0,1-.65-.29.9.9,0,0,1-.26-.61V64.08a1,1,0,0,1,.26-.68.81.81,0,0,1,.65-.29Zm-6.2-23.57h6.13V33.41H38.61Zm9.49,0h6.13V33.41H48.1Z" transform="translate(-6.26 -2)"/>
    <path class="cls-1" d="M68.44,48.45V59.23A3.53,3.53,0,0,0,69.7,62a4.3,4.3,0,0,0,2.93,1.1h5.88a.8.8,0,0,1,.9.9v4.52a.8.8,0,0,1-.9.9h-5a7.59,7.59,0,0,1-2.84-.54,5,5,0,0,1-2.26-1.84v2.32a13.39,13.39,0,0,1-.75,4.46,14.75,14.75,0,0,1-2.06,3.93,14.3,14.3,0,0,1-3.13,3.13,15,15,0,0,1-4,2.1L50.55,85.7l-1.68-5.16,8.33-2.78a8.44,8.44,0,0,0,4.33-3.16,8.61,8.61,0,0,0,1.61-5.1v-21Z" transform="translate(-6.26 -2)"/>
    <path class="cls-1" d="M87.42,63.11A4.2,4.2,0,0,0,91.55,59V46.58h5.29V59a10.36,10.36,0,0,1-3,7.36,11,11,0,0,1-3.33,2.26,10,10,0,0,1-4.1.83H78.51a.81.81,0,0,1-.65-.29.9.9,0,0,1-.26-.61V64.08a1,1,0,0,1,.26-.68.81.81,0,0,1,.65-.29ZM79.86,77.18H86v6.14H79.86Z" transform="translate(-6.26 -2)"/>
    <path class="cls-1" d="M107.43,85.64l-1.68-5.23,8.33-2.71a8.27,8.27,0,0,0,4.29-3.16,8.57,8.57,0,0,0,1.59-5V48.39h5.29V69a14.59,14.59,0,0,1-.71,4.55,14.88,14.88,0,0,1-5.1,7.24,14.42,14.42,0,0,1-4.07,2.16Z" transform="translate(-6.26 -2)"/>
    <path class="cls-1" d="M139.65,69.43h-5.3V26.31h5.3Z" transform="translate(-6.26 -2)"/>
    <path class="cls-1" d="M179.87,63.11h1.55a.83.83,0,0,1,.61.29.94.94,0,0,1,.29.68v4.45a.8.8,0,0,1-.9.9h-1.29a8.51,8.51,0,0,1-4.46-1.19,10.25,10.25,0,0,1-3.29-3.13,9.29,9.29,0,0,1-3.49,3.19,9.56,9.56,0,0,1-4.58,1.13h-8.72a6.92,6.92,0,0,1-2.9-.61,8.24,8.24,0,0,1-2.39-1.61,7.05,7.05,0,0,1-1.61-2.39,7.53,7.53,0,0,1-.59-2.94V54.52h4.59v6.26a2.43,2.43,0,0,0,.58,1.65,2,2,0,0,0,1.61.68h9.43a4.73,4.73,0,0,0,2.23-.52,5,5,0,0,0,1.67-1.39,5.19,5.19,0,0,0,1-2,4.39,4.39,0,0,0,0-2.19l-4.91-17.82,5-1.87,6.27,22.46a4.2,4.2,0,0,0,1.58,2.39A4.28,4.28,0,0,0,179.87,63.11ZM162.44,24.24h6.13v6.14h-6.13Z" transform="translate(-6.26 -2)"/>
    <path class="cls-1" d="M192.52,51.36l-3.87-3.68,17.56-20.6,3.87,3.55L197.43,45.55h25.18a9.38,9.38,0,0,1,3.68.74,10,10,0,0,1,3.06,2,9.22,9.22,0,0,1,2.07,3,9.35,9.35,0,0,1,.74,3.74v4.78a9.33,9.33,0,0,1-.77,3.78,9.7,9.7,0,0,1-2.1,3.06,9.83,9.83,0,0,1-3.1,2,9.6,9.6,0,0,1-3.71.74l-41.06-.07a.81.81,0,0,1-.65-.29.9.9,0,0,1-.26-.61V64.08a.81.81,0,0,1,.91-.91h42.09a3.32,3.32,0,0,0,2.36-1,3.18,3.18,0,0,0,1-2.52V55.23a3.74,3.74,0,0,0-1.13-2.74,3.64,3.64,0,0,0-2.68-1.13Zm-7.42-11.3,13.69-16.14,2.77,2.52-13.62,16Z" transform="translate(-6.26 -2)"/>
    <path class="cls-1" d="M248.24,53.62A10.52,10.52,0,0,1,256.31,43l8.84-2.26v-5.1h5.3V58.59a4.23,4.23,0,0,0,.38,1.74,4.41,4.41,0,0,0,1.07,1.45,5.18,5.18,0,0,0,1.52,1,4.53,4.53,0,0,0,1.81.36h1.93a.8.8,0,0,1,.91.9v4.52a.8.8,0,0,1-.91.9h-1.93a9.25,9.25,0,0,1-5.43-1.61,10.8,10.8,0,0,1-3.61-4.26,3.83,3.83,0,0,1-1.49.77,6.24,6.24,0,0,1-1.81.26H255a6.48,6.48,0,0,1-4.9-1.87,6.75,6.75,0,0,1-1.81-4.91Zm16.91-7.1-7.55,1.87a5.21,5.21,0,0,0-3,2.06,5.84,5.84,0,0,0-1.1,3.43v4.39h11.62Z" transform="translate(-6.26 -2)"/>
    <path class="cls-1" d="M289.94,63.11A4.2,4.2,0,0,0,294.08,59V46.58h5.29V59a10.18,10.18,0,0,1-.81,4,10.56,10.56,0,0,1-2.22,3.33A11,11,0,0,1,293,68.6a10.05,10.05,0,0,1-4.1.83H277.16a.79.79,0,0,1-.64-.29.86.86,0,0,1-.26-.61V64.08a1,1,0,0,1,.26-.68.79.79,0,0,1,.64-.29ZM277.68,77.18h6.07v6.14h-6.07Zm9.42,0h6.14v6.14H287.1Z" transform="translate(-6.26 -2)"/>
    <path class="cls-1" d="M322.61,68.53a.8.8,0,0,1-.9.9h-2.26a10,10,0,0,1-4-.8,10.51,10.51,0,0,1-3.3-2.23,10.35,10.35,0,0,1-2.22-3.32,10.23,10.23,0,0,1-.81-4V26.31h5.29V59a4.2,4.2,0,0,0,4.14,4.13h3.16a.82.82,0,0,1,.65.29,1,1,0,0,1,.25.68Z" transform="translate(-6.26 -2)"/>
    <path class="cls-1" d="M328.23,59.43l1.29-6.65a9,9,0,0,1,3.13-5.23,8.68,8.68,0,0,1,5.72-2.07H342A9.51,9.51,0,0,1,351.54,55v7.87a6.4,6.4,0,0,1-1.81,4.68,6.24,6.24,0,0,1-4.65,1.84h-7.81a8.07,8.07,0,0,1-3.75-.9,7,7,0,0,1-2.9-3.16,7.41,7.41,0,0,1-3.2,3.16,9.18,9.18,0,0,1-4,.9h-1.74a.8.8,0,0,1-.91-.9V64a.92.92,0,0,1,.26-.61.82.82,0,0,1,.65-.29h2.07a4.57,4.57,0,0,0,4.45-3.68Zm8.46,3.68h9.55V55a3.31,3.31,0,0,0-1-2.48,3.48,3.48,0,0,0-2.52-1h-4.58a3.41,3.41,0,0,0-2.23.77,3.5,3.5,0,0,0-1.19,2.07l-1,5.16a3,3,0,0,0,3,3.62Z" transform="translate(-6.26 -2)"/>
    <path class="cls-1" d="M365.74,48.45V59.23A3.53,3.53,0,0,0,367,62a4.35,4.35,0,0,0,2.94,1.1h5.87a.8.8,0,0,1,.9.9v4.52a.8.8,0,0,1-.9.9h-5a7.59,7.59,0,0,1-2.84-.54,5,5,0,0,1-2.26-1.84v2.32a13.64,13.64,0,0,1-.74,4.46,15.07,15.07,0,0,1-2.07,3.93,14.3,14.3,0,0,1-3.13,3.13,15.11,15.11,0,0,1-4,2.1l-7.94,2.71-1.68-5.16,8.33-2.78a8.45,8.45,0,0,0,4.32-3.16,8.56,8.56,0,0,0,1.62-5.1v-21Z" transform="translate(-6.26 -2)"/>
    <path class="cls-1" d="M393.05,69.43a9.31,9.31,0,0,1-4.33-1,9.4,9.4,0,0,1-3.42-3.1A8.84,8.84,0,0,1,382,68.4a9.45,9.45,0,0,1-4.4,1h-1.74a.79.79,0,0,1-.64-.29.86.86,0,0,1-.26-.61V64a.79.79,0,0,1,.29-.64.87.87,0,0,1,.61-.26h2.71a3.89,3.89,0,0,0,2.94-1.26,4.2,4.2,0,0,0,1.2-3V48.32H388V59a4,4,0,0,0,1.2,2.9,3.84,3.84,0,0,0,2.87,1.23h1.42A4.54,4.54,0,0,0,398,59.36l2.13-10.65,5.23.9-1.74,8.91a3.48,3.48,0,0,0,.84,3.2,3.93,3.93,0,0,0,3.1,1.39h5.29V46.52h5.29V62.91a6.39,6.39,0,0,1-1.8,4.68,6.24,6.24,0,0,1-4.65,1.84h-4.2a8.14,8.14,0,0,1-4-1,7.29,7.29,0,0,1-3-3.16,8.38,8.38,0,0,1-3.33,3.19A9,9,0,0,1,393.05,69.43Z" transform="translate(-6.26 -2)"/>
  </g>
  <g>
    <path id="pAz8gEQ9l" class="cls-1" d="M433.06,93.08c-1.67-.1-2-.2-2.52-.85a2.81,2.81,0,0,1-.61-2.18c0-2,.61-3,1.95-3.21.56-.1,6.29-.17,12.75-.17s11.73-.08,11.73-.18-.28-1.39-.64-2.85c-.79-3.26-.79-3.8,0-6.37,2.23-7.49,3.07-10,3.49-10.44s3.51-1.52,10.34-3.49l3.31-1,1.46-2.83c.8-1.54,1.82-3.44,2.26-4.21s1.21-2.23,1.72-3.23A5.31,5.31,0,0,1,479.87,50a5.47,5.47,0,0,1,3.72.1c.93.49,1.26,1.29,1.26,3,0,1.15-.28,1.87-2.49,6.08-1.36,2.62-2.87,5.54-3.34,6.47a9.27,9.27,0,0,1-1.3,2.07c-.39.34-3.06,1.21-11.27,3.65-2.11.62-2,.46-3.11,4.13-1.41,4.62-1.43,4.75-.95,7,.23,1.11.52,2.47.62,3l.15,1,11.06.07,11.09.06-1.61-4.42c-.88-2.44-1.78-4.88-2-5.44-.82-2-.59-3,1.79-8.67,1.21-2.88,2.54-6.09,3-7.14,1.05-2.59,1.49-3,3.95-3.31,10.45-1.57,23.92-3.36,25.08-3.36,2.51,0,3.26.74,3.26,3.26,0,1.51-.57,2.54-1.59,2.87-.47.16-6.16,1-12.63,1.95s-11.81,1.7-11.83,1.75-1.67,3.74-3,7.11l-1.44,3.46,2.13,5.65c1.16,3.1,2.18,5.8,2.31,6s10.42.31,48.23.31c37.62,0,48.17.07,48.66.33A3.21,3.21,0,0,1,591,90.44c-.25,2-1,2.64-3.33,2.64C573.62,93.18,434.42,93.18,433.06,93.08Z" transform="translate(-6.26 -2)"/>
    <path id="pHvQFxSX8" class="cls-1" d="M522.14,81.87c-1.69-.34-2-2.34-1.1-8.17.28-1.82.51-3.46.51-3.64a38.06,38.06,0,0,1,3.08-4.18,42.66,42.66,0,0,0,3.08-4.11A15.77,15.77,0,0,0,526,59.54c-1-1.11-2.23-2.65-2.87-3.42-3.34-4.18-6.72-5.87-11.73-5.9-1.72,0-1.87,0-2.49-.79a2.76,2.76,0,0,1-.67-2.19c0-3,1-3.59,5.75-3.36,4.47.21,7.19,1.11,10.27,3.44a14.87,14.87,0,0,0,1.85,1.28c.84.34,8.31-5.1,12.39-9a64.37,64.37,0,0,0,4.7-5.13,23,23,0,0,1,2.72-3,4,4,0,0,1,3.93.12c.87.57.87.62,1,2.88.18,2.69.18,2.67,2.08,5.52,2.64,4,3.41,5.9,3.85,9.9l.3,2.7.75-.08c.69-.08.85-.33,2.67-4.44,2.23-5,5.49-12.45,5.67-12.86,0-.18-.33-.56-.87-.9s-1.72-1.05-2.65-1.66-4.26-2.72-7.44-4.73-7.34-4.67-9.24-5.9-5-3.18-6.88-4.36l-3.41-2.13-1.46.74c-1.31.67-1.72.75-3.9.75-2.44,0-3.24-.23-4.88-1.29-.64-.43-.72-.38-7.31,3.8-3.67,2.34-8.68,5.54-11.14,7.16s-4.57,2.95-4.7,3-1.1.65-2.16,1.34c-1.41.95-1.89,1.41-1.89,1.85A5.52,5.52,0,0,1,495,37.54a9.77,9.77,0,0,1-2.9.36,5.55,5.55,0,0,1-3.24-.64l-1.2-.64-10.19,2.59c-5.6,1.44-10.45,2.67-10.75,2.72-.62.16-.75.49-2.16,5.93C460.67,62.8,461,61.8,460.06,62.41a4.66,4.66,0,0,1-2.16.39c-1.41,0-1.67-.08-2.33-.75-1.11-1.1-1-2.69.41-8.11.61-2.38,1.1-4.39,1-4.41s-1,.69-5.57,4.54c-3.67,3.11-4,3.34-5.47,3.34-1.18,0-1.87-.26-8.75-3.18-6.41-2.75-6.77-2.93-7.18-3.78-.88-1.64-.26-4.26,1.13-4.85a7.4,7.4,0,0,1,4.77.46c1.28.65,9,3.91,9.21,3.91S452,44.34,459,38.36l2.26-2,3.64-.92c2-.51,5-1.28,6.62-1.72S477,32.36,480,31.59c6.45-1.64,6.68-1.72,6.68-2.41a4.1,4.1,0,0,1,1.1-1.65c1.36-1.36,3-1.84,5.42-1.59l1.59.16,3.95-2.52c25.15-16,23.92-15.11,24.3-16.5A6.62,6.62,0,0,1,529.4,2c4.19-.25,7.19,1.57,8.09,5,.43,1.64.49,1.69,3.85,3.8l4.85,3.05,4,2.51c1.28.83,3.82,2.44,5.64,3.6s3.93,2.49,4.62,2.95,2.72,1.72,4.49,2.87c3.42,2.18,6.5,4.16,7.19,4.57.26.16,1.44.93,2.64,1.75,1.39.92,2.34,1.43,2.54,1.31s1.65-1.11,3.24-2.24l2.9-2-.44-.67a12.51,12.51,0,0,0-.9-1.2c-.64-.7-.66-2.34,0-2.49,1.67-.49,13.93-2.54,14.27-2.42s.41.47.41,1c0,.82-.47,2-4,10.29l-1.49,3.51h-1c-.54,0-1-.07-1-.18a4.64,4.64,0,0,0-.84-1.18l-.82-1-3.57,2.46c-5.06,3.49-5.49,3.72-7,3.72-1.08,0-1.54-.18-3-1.15l-1.77-1.13-1,2.1c-.54,1.16-1.38,3-1.87,4.16s-2,4.59-3.39,7.7c-3.18,7.11-2.49,6.62-9,6.42a40.86,40.86,0,0,1-5.44-.44c-1-.36-1.18-1.21-1.31-5.21-.08-3.16-.16-3.8-.75-5.21A44.78,44.78,0,0,0,546,42.29a7.77,7.77,0,0,0-1.62,1.39l-1.51,1.51,1.36,1.54c3.21,3.72,4.26,5.06,4.41,5.72s-.74,8.65-1.44,12.91c-.12.77-.35,2.39-.51,3.6-.69,5.26-.77,5.59-1.59,6.28a2.83,2.83,0,0,1-2.26.65c-1.38,0-1.59-.08-2.28-.83s-.8-1-.8-2.38a43.13,43.13,0,0,1,.39-4.36c.23-1.54.51-3.75.64-4.88s.43-3.36.64-5,.39-3.08.39-3.26A31.36,31.36,0,0,0,537.44,50a6.69,6.69,0,0,0-1.59,1c-.75.53-2.19,1.48-3.21,2.13l-1.85,1.15,1.1,1.26c.62.69,1.72,2,2.44,2.87,1.28,1.57,1.34,1.67,1.34,3.21a5.57,5.57,0,0,1-.34,2.13c-.15.31-1.69,2.26-3.39,4.34-4.44,5.44-4.15,4.9-4.62,8.6s-.71,4.46-1.51,5A6.79,6.79,0,0,1,522.14,81.87Z" transform="translate(-6.26 -2)"/>
  </g>
</svg>
